<svg width="438" height="98" viewBox="0 0 438 98" fill="none" xmlns="http://www.w3.org/2000/svg">
<path d="M25.7316 38.4297C25.7316 41.3653 25.2035 43.5448 24.2434 44.9681C23.2353 46.3914 21.9871 47.3255 20.4989 47.7703C21.9871 48.1261 23.2353 49.0602 24.2434 50.4835C25.2035 51.9068 25.7316 54.0863 25.7316 57.0219V85.3549C25.7316 87.4009 25.3475 89.1356 24.6755 90.6034C24.0034 92.0712 23.0912 93.2721 21.9871 94.2507C20.9309 95.2292 19.6828 95.9409 18.2906 96.3856C16.8984 96.8304 15.4582 97.0973 13.97 97.0973H0V0.800619H13.97C15.4582 0.800619 16.8984 1.06749 18.2906 1.51228C19.6828 1.95707 20.9309 2.71321 21.9871 3.69174C23.0912 4.71476 24.0034 6.04912 24.6755 7.65036C25.3475 9.2516 25.7316 11.1642 25.7316 13.3437V38.4297ZM18.8666 57.4222C18.8666 52.574 17.3304 50.1277 14.258 50.1277H6.81695V91.7154H13.3939C14.7861 91.7154 16.0342 91.0927 17.1864 89.9362C18.2906 88.7353 18.8666 86.8672 18.8666 84.4208V57.4222ZM14.258 45.2795C17.3304 45.2795 18.8666 42.8776 18.8666 37.9849V14.3222C18.8666 11.3866 18.2906 9.29608 17.1864 8.05067C16.0342 6.80526 14.7861 6.18256 13.3939 6.18256H6.81695V45.2795H14.258ZM38.2133 0.800619V92.2491H51.1272V97.0973H31.3484V0.800619H38.2133ZM71.77 69.6539H60.9205L58.1361 97.0973H52.0393L62.1207 0.800619H71.0499L81.3234 97.0973H74.6024L71.77 69.6539ZM61.5446 64.8501H71.194L66.4413 19.1259H66.2973L61.5446 64.8501ZM96.5895 97.8979C95.2453 97.8979 93.8051 97.6755 92.3649 97.2307C90.9247 96.7415 89.6765 96.0298 88.5724 95.0068C87.5162 93.9838 86.6041 92.6939 85.932 91.0927C85.2119 89.4914 84.8759 87.5788 84.8759 85.3549V12.543C84.8759 10.3191 85.2119 8.4065 85.932 6.80526C86.6041 5.20402 87.5162 3.91414 88.5724 2.89112C89.6765 1.86811 90.9247 1.15645 92.3649 0.667183C93.8051 0.222394 95.2453 0 96.5895 0H98.8458C100.238 0 101.63 0.222394 103.022 0.667183C104.367 1.15645 105.663 1.86811 106.815 2.89112C107.919 3.91414 108.831 5.20402 109.551 6.80526C110.223 8.4065 110.559 10.3191 110.559 12.543V39.6751H103.743V13.4771C103.743 10.5415 103.166 8.45098 102.014 7.20557C100.91 6.00464 99.6139 5.38194 98.2698 5.38194H97.2136C95.8214 5.38194 94.5732 6.00464 93.4211 7.20557C92.2689 8.45098 91.6928 10.5415 91.6928 13.4771V84.4208C91.6928 87.3564 92.2689 89.4469 93.4211 90.6924C94.5732 91.9378 95.8214 92.516 97.2136 92.516H98.2698C99.6139 92.516 100.91 91.9378 102.014 90.6924C103.166 89.4469 103.743 87.3564 103.743 84.4208V58.0894H110.559V85.3549C110.559 87.5788 110.223 89.4914 109.551 91.0927C108.831 92.6939 107.919 93.9838 106.815 95.0068C105.663 96.0298 104.367 96.7415 103.022 97.2307C101.63 97.6755 100.238 97.8979 98.8458 97.8979H96.5895ZM128.562 46.9697L143.876 97.0973H137.491L123.809 55.5096H123.665V97.0973H116.848V0.800619H123.665V41.0095H123.809L137.923 0.800619H144.164L128.562 46.9697ZM173.736 38.4297C173.736 41.3653 173.256 43.5448 172.248 44.9681C171.288 46.3914 170.04 47.3255 168.552 47.7703C170.04 48.1261 171.288 49.0602 172.248 50.4835C173.256 51.9068 173.736 54.0863 173.736 57.0219V85.3549C173.736 87.4009 173.4 89.1356 172.728 90.6034C172.008 92.0712 171.144 93.2721 170.04 94.2507C168.936 95.2292 167.687 95.9409 166.343 96.3856C164.951 96.8304 163.511 97.0973 162.023 97.0973H148.053V0.800619H162.023C163.511 0.800619 164.951 1.06749 166.343 1.51228C167.687 1.95707 168.936 2.71321 170.04 3.69174C171.144 4.71476 172.008 6.04912 172.728 7.65036C173.4 9.2516 173.736 11.1642 173.736 13.3437V38.4297ZM166.919 57.4222C166.919 52.574 165.383 50.1277 162.311 50.1277H154.87V91.7154H161.399C162.791 91.7154 164.087 91.0927 165.191 89.9362C166.343 88.7353 166.919 86.8672 166.919 84.4208V57.4222ZM162.311 45.2795C165.383 45.2795 166.919 42.8776 166.919 37.9849V14.3222C166.919 11.3866 166.343 9.29608 165.191 8.05067C164.087 6.80526 162.791 6.18256 161.399 6.18256H154.87V45.2795H162.311ZM186.218 6.18256V46.5249H196.924V51.3731H186.218V91.7154H200.668V97.0973H179.401V0.800619H200.044V6.18256H186.218ZM231.296 39.8086C231.296 42.7442 230.768 44.9236 229.808 46.347C228.8 47.7703 227.552 48.7043 226.064 49.1491C227.552 49.5049 228.8 50.439 229.808 51.8623C230.768 53.2857 231.296 55.4651 231.296 58.4007V82.1969C231.296 87.1785 231.44 90.6924 231.776 92.8273C232.16 94.9178 232.401 96.3412 232.593 97.0973H225.776C225.296 95.8964 224.911 94.2062 224.719 91.9822C224.527 89.8028 224.431 86.5113 224.431 82.1969V58.9345C224.431 53.9973 222.895 51.5065 219.823 51.5065H212.382V97.0973H205.565V0.800619H219.535C222.703 0.800619 225.44 1.86811 227.792 3.91414C230.096 6.00464 231.296 9.11816 231.296 13.3437V39.8086ZM219.823 46.6583C222.895 46.6583 224.431 44.2564 224.431 39.3638V14.3222C224.431 11.3866 223.855 9.29608 222.703 8.05067C221.599 6.80526 220.303 6.18256 218.959 6.18256H212.382V46.6583H219.823ZM264.133 39.8086C264.133 42.7442 263.605 44.9236 262.645 46.347C261.637 47.7703 260.388 48.7043 258.9 49.1491C260.388 49.5049 261.637 50.439 262.645 51.8623C263.605 53.2857 264.133 55.4651 264.133 58.4007V82.1969C264.133 87.1785 264.277 90.6924 264.661 92.8273C264.997 94.9178 265.237 96.3412 265.477 97.0973H258.612C258.132 95.8964 257.796 94.2062 257.604 91.9822C257.364 89.8028 257.268 86.5113 257.268 82.1969V58.9345C257.268 53.9973 255.732 51.5065 252.659 51.5065H245.266V97.0973H238.401V0.800619H252.371C255.54 0.800619 258.276 1.86811 260.628 3.91414C262.933 6.00464 264.133 9.11816 264.133 13.3437V39.8086ZM252.659 46.6583C255.732 46.6583 257.268 44.2564 257.268 39.3638V14.3222C257.268 11.3866 256.692 9.29608 255.588 8.05067C254.436 6.80526 253.187 6.18256 251.795 6.18256H245.266V46.6583H252.659ZM285.688 59.913L285.544 97.0973H278.679V59.913L267.541 0.800619H274.502L281.943 45.146H282.232L289.673 0.800619H296.682L285.688 59.913Z" fill="white"/>
<path d="M344.8 0.845128V97.0973H337.953V51.3731H326.62V97.0973H319.725V0.845128H326.62V46.5249H337.953V0.845128H344.8ZM358.399 0.845128V97.0973H351.551V0.845128H358.399ZM371.853 0.845128V92.2491H384.825V97.0973H364.957V0.845128H371.853ZM395.434 0.845128V92.2491H408.406V97.0973H388.586V0.845128H395.434ZM430.829 39.6752V13.4771C430.829 10.5415 430.25 8.45101 429.141 7.25008C427.984 6.00467 426.73 5.38197 425.38 5.38197H424.319C422.969 5.38197 421.715 6.00467 420.558 7.25008C419.448 8.45101 418.87 10.5415 418.87 13.4771V27.1321C418.87 31.4466 419.882 35.2717 421.86 38.6077C423.837 41.9881 426.007 45.235 428.37 48.393C430.684 51.551 432.854 54.8424 434.831 58.1783C436.857 61.5143 437.821 65.4284 437.821 69.8318V85.3994C437.821 87.5789 437.484 89.4915 436.808 91.0927C436.085 92.6939 435.169 94.0283 434.06 95.0068C432.999 96.0298 431.745 96.786 430.298 97.2308C428.948 97.6756 427.502 97.8979 425.958 97.8979H423.885C422.438 97.8979 421.04 97.6756 419.593 97.2308C418.146 96.786 416.844 96.0298 415.687 95.0068C414.53 94.0283 413.614 92.6939 412.89 91.0927C412.215 89.4915 411.878 87.5789 411.878 85.3994V58.2673H418.291V84.4209C418.291 87.3565 418.918 89.447 420.124 90.6924C421.377 91.9378 422.679 92.5605 424.03 92.5605H425.09C426.441 92.5605 427.743 91.9378 428.996 90.6924C430.202 89.447 430.829 87.3565 430.829 84.4209V70.6324C430.829 67.7858 430.347 65.1615 429.382 62.8041C428.466 60.4023 427.309 58.1339 425.91 55.9989C424.512 53.8194 422.969 51.7289 421.329 49.6384C419.69 47.5924 418.195 45.4574 416.796 43.2335C415.398 41.054 414.24 38.6966 413.276 36.2058C412.312 33.7595 411.878 31.0463 411.878 28.1107V12.5431C411.878 10.3191 412.215 8.40653 412.89 6.80529C413.614 5.20405 414.53 3.91417 415.591 2.89116C416.7 1.86814 418.002 1.15648 419.448 0.667213C420.895 0.222425 422.342 3.05176e-05 423.74 3.05176e-05H425.38C426.778 3.05176e-05 428.177 0.222425 429.575 0.667213C430.974 1.15648 432.276 1.86814 433.385 2.89116C434.542 3.91417 435.506 5.20405 436.182 6.80529C436.905 8.40653 437.242 10.3191 437.242 12.5431V39.6752H430.829Z" fill="white"/>
</svg>
