<svg width="346" height="108" viewBox="0 0 346 108" fill="none" xmlns="http://www.w3.org/2000/svg">
<g filter="url(#filter0_d)">
<path d="M37.4336 42.9754C37.4336 45.0389 37.0625 46.5709 36.3879 47.5714C35.6795 48.5719 34.8024 49.2285 33.7567 49.5412C34.8024 49.7913 35.6795 50.4479 36.3879 51.4484C37.0625 52.4489 37.4336 53.9809 37.4336 56.0445V75.9608C37.4336 77.399 37.1637 78.6183 36.6915 79.6501C36.2192 80.6819 35.5783 81.5261 34.8024 82.2139C34.0603 82.9017 33.1832 83.402 32.2049 83.7147C31.2267 84.0273 30.2147 84.2149 29.1689 84.2149H19.3525V16.5245H29.1689C30.2147 16.5245 31.2267 16.7121 32.2049 17.0248C33.1832 17.3374 34.0603 17.8689 34.8024 18.5568C35.5783 19.2759 36.2192 20.2139 36.6915 21.3394C37.1637 22.465 37.4336 23.8094 37.4336 25.3415V42.9754ZM32.6097 56.3258C32.6097 52.9179 31.5303 51.1983 29.3713 51.1983H24.1427V80.4318H28.7641C29.7424 80.4318 30.6195 79.994 31.4291 79.1811C32.2049 78.3369 32.6097 77.0238 32.6097 75.3042V56.3258ZM29.3713 47.7903C31.5303 47.7903 32.6097 46.1019 32.6097 42.6627V26.0293C32.6097 23.9658 32.2049 22.4963 31.4291 21.6208C30.6195 20.7454 29.7424 20.3077 28.7641 20.3077H24.1427V47.7903H29.3713ZM46.2043 16.5245V80.8069H55.2785V84.2149H41.3804V16.5245H46.2043ZM69.7838 64.9239H62.1601L60.2036 84.2149H55.9195L63.0034 16.5245H69.2778L76.4968 84.2149H71.7741L69.7838 64.9239ZM62.5986 61.5472H69.379L66.0394 29.406H65.9382L62.5986 61.5472ZM87.224 84.7777C86.2794 84.7777 85.2674 84.6214 84.2554 84.3087C83.2434 83.9648 82.3664 83.4645 81.5905 82.7454C80.8484 82.0263 80.2074 81.1196 79.7352 79.994C79.2292 78.8685 78.993 77.524 78.993 75.9608V24.7787C78.993 23.2154 79.2292 21.871 79.7352 20.7454C80.2074 19.6198 80.8484 18.7131 81.5905 17.994C82.3664 17.2749 83.2434 16.7746 84.2554 16.4307C85.2674 16.1181 86.2794 15.9617 87.224 15.9617H88.8094C89.7877 15.9617 90.766 16.1181 91.7442 16.4307C92.6888 16.7746 93.5996 17.2749 94.4092 17.994C95.185 18.7131 95.826 19.6198 96.332 20.7454C96.8042 21.871 97.0404 23.2154 97.0404 24.7787V43.8508H92.2502V25.4353C92.2502 23.3717 91.8454 21.9022 91.0358 21.0268C90.26 20.1826 89.3492 19.7449 88.4046 19.7449H87.6625C86.6842 19.7449 85.8072 20.1826 84.9976 21.0268C84.188 21.9022 83.7832 23.3717 83.7832 25.4353V75.3042C83.7832 77.3677 84.188 78.8372 84.9976 79.7126C85.8072 80.5881 86.6842 80.9945 87.6625 80.9945H88.4046C89.3492 80.9945 90.26 80.5881 91.0358 79.7126C91.8454 78.8372 92.2502 77.3677 92.2502 75.3042V56.7948H97.0404V75.9608C97.0404 77.524 96.8042 78.8685 96.332 79.994C95.826 81.1196 95.185 82.0263 94.4092 82.7454C93.5996 83.4645 92.6888 83.9648 91.7442 84.3087C90.766 84.6214 89.7877 84.7777 88.8094 84.7777H87.224ZM109.69 48.9784L120.451 84.2149H115.965L106.351 54.9814H106.25V84.2149H101.459V16.5245H106.25V44.7888H106.351L116.268 16.5245H120.654L109.69 48.9784ZM141.433 42.9754C141.433 45.0389 141.096 46.5709 140.388 47.5714C139.713 48.5719 138.836 49.2285 137.79 49.5412C138.836 49.7913 139.713 50.4479 140.388 51.4484C141.096 52.4489 141.433 53.9809 141.433 56.0445V75.9608C141.433 77.399 141.197 78.6183 140.725 79.6501C140.219 80.6819 139.612 81.5261 138.836 82.2139C138.06 82.9017 137.183 83.402 136.238 83.7147C135.26 84.0273 134.248 84.2149 133.202 84.2149H123.386V16.5245H133.202C134.248 16.5245 135.26 16.7121 136.238 17.0248C137.183 17.3374 138.06 17.8689 138.836 18.5568C139.612 19.2759 140.219 20.2139 140.725 21.3394C141.197 22.465 141.433 23.8094 141.433 25.3415V42.9754ZM136.643 56.3258C136.643 52.9179 135.564 51.1983 133.405 51.1983H128.176V80.4318H132.764C133.742 80.4318 134.653 79.994 135.429 79.1811C136.238 78.3369 136.643 77.0238 136.643 75.3042V56.3258ZM133.405 47.7903C135.564 47.7903 136.643 46.1019 136.643 42.6627V26.0293C136.643 23.9658 136.238 22.4963 135.429 21.6208C134.653 20.7454 133.742 20.3077 132.764 20.3077H128.176V47.7903H133.405ZM150.204 20.3077V48.6657H157.727V52.0737H150.204V80.4318H160.358V84.2149H145.414V16.5245H159.919V20.3077H150.204ZM181.88 43.9446C181.88 46.0081 181.509 47.5402 180.834 48.5407C180.126 49.5412 179.248 50.1978 178.203 50.5104C179.248 50.7605 180.126 51.4171 180.834 52.4176C181.509 53.4181 181.88 54.9501 181.88 57.0137V73.7409C181.88 77.2426 181.981 79.7126 182.217 81.2134C182.487 82.6829 182.656 83.6834 182.79 84.2149H178C177.663 83.3707 177.393 82.1826 177.258 80.6193C177.123 79.0873 177.056 76.7737 177.056 73.7409V57.3889C177.056 53.9184 175.976 52.1675 173.817 52.1675H168.589V84.2149H163.799V16.5245H173.615C175.841 16.5245 177.764 17.2749 179.417 18.7131C181.036 20.1826 181.88 22.3712 181.88 25.3415V43.9446ZM173.817 48.7595C175.976 48.7595 177.056 47.0712 177.056 43.6319V26.0293C177.056 23.9658 176.651 22.4963 175.841 21.6208C175.066 20.7454 174.155 20.3077 173.21 20.3077H168.589V48.7595H173.817ZM204.953 43.9446C204.953 46.0081 204.582 47.5402 203.908 48.5407C203.199 49.5412 202.322 50.1978 201.276 50.5104C202.322 50.7605 203.199 51.4171 203.908 52.4176C204.582 53.4181 204.953 54.9501 204.953 57.0137V73.7409C204.953 77.2426 205.054 79.7126 205.324 81.2134C205.56 82.6829 205.729 83.6834 205.898 84.2149H201.074C200.737 83.3707 200.5 82.1826 200.366 80.6193C200.197 79.0873 200.129 76.7737 200.129 73.7409V57.3889C200.129 53.9184 199.05 52.1675 196.891 52.1675H191.696V84.2149H186.872V16.5245H196.689C198.915 16.5245 200.838 17.2749 202.491 18.7131C204.11 20.1826 204.953 22.3712 204.953 25.3415V43.9446ZM196.891 48.7595C199.05 48.7595 200.129 47.0712 200.129 43.6319V26.0293C200.129 23.9658 199.725 22.4963 198.949 21.6208C198.139 20.7454 197.262 20.3077 196.284 20.3077H191.696V48.7595H196.891ZM220.1 58.0767L219.998 84.2149H215.174V58.0767L207.348 16.5245H212.24L217.468 47.6965H217.671L222.899 16.5245H227.824L220.1 58.0767Z" fill="white"/>
<path d="M261.636 16.5558V84.2149H256.824V52.0737H248.861V84.2149H244.016V16.5558H248.861V48.6657H256.824V16.5558H261.636ZM271.191 16.5558V84.2149H266.38V16.5558H271.191ZM280.645 16.5558V80.8069H289.76V84.2149H275.8V16.5558H280.645ZM297.215 16.5558V80.8069H306.33V84.2149H292.403V16.5558H297.215ZM322.086 43.8508V25.4353C322.086 23.3717 321.68 21.9022 320.9 21.0581C320.087 20.1826 319.206 19.7449 318.257 19.7449H317.512C316.563 19.7449 315.682 20.1826 314.869 21.0581C314.089 21.9022 313.683 23.3717 313.683 25.4353V35.0339C313.683 38.0666 314.394 40.7555 315.784 43.1004C317.173 45.4766 318.698 47.759 320.358 49.9789C321.985 52.1988 323.509 54.5124 324.899 56.8574C326.322 59.2023 327 61.9537 327 65.049V75.992C327 77.524 326.762 78.8685 326.288 79.994C325.78 81.1196 325.136 82.0576 324.357 82.7454C323.611 83.4645 322.73 83.9961 321.714 84.3087C320.765 84.6214 319.748 84.7777 318.664 84.7777H317.207C316.19 84.7777 315.208 84.6214 314.191 84.3087C313.175 83.9961 312.26 83.4645 311.446 82.7454C310.633 82.0576 309.989 81.1196 309.481 79.994C309.007 78.8685 308.77 77.524 308.77 75.992V56.9199H313.276V75.3042C313.276 77.3677 313.717 78.8372 314.564 79.7126C315.445 80.5881 316.36 81.0258 317.309 81.0258H318.054C319.003 81.0258 319.918 80.5881 320.799 79.7126C321.646 78.8372 322.086 77.3677 322.086 75.3042V65.6118C322.086 63.6108 321.747 61.7661 321.07 60.109C320.426 58.4207 319.613 56.8261 318.63 55.3253C317.647 53.7933 316.563 52.3238 315.411 50.8543C314.259 49.4161 313.208 47.9153 312.226 46.3521C311.243 44.82 310.43 43.163 309.752 41.4121C309.075 39.6925 308.77 37.7852 308.77 35.7217V24.7787C308.77 23.2154 309.007 21.871 309.481 20.7454C309.989 19.6198 310.633 18.7131 311.379 17.994C312.158 17.2749 313.073 16.7746 314.089 16.4307C315.106 16.1181 316.123 15.9617 317.105 15.9617H318.257C319.24 15.9617 320.223 16.1181 321.205 16.4307C322.188 16.7746 323.103 17.2749 323.882 17.994C324.695 18.7131 325.373 19.6198 325.848 20.7454C326.356 21.871 326.593 23.2154 326.593 24.7787V43.8508H322.086Z" fill="white"/>
</g>
<defs>
<filter id="filter0_d" x="0.352539" y="0.961731" width="345.647" height="106.816" filterUnits="userSpaceOnUse" color-interpolation-filters="sRGB">
<feFlood flood-opacity="0" result="BackgroundImageFix"/>
<feColorMatrix in="SourceAlpha" type="matrix" values="0 0 0 0 0 0 0 0 0 0 0 0 0 0 0 0 0 0 127 0"/>
<feOffset dy="4"/>
<feGaussianBlur stdDeviation="9.5"/>
<feColorMatrix type="matrix" values="0 0 0 0 0 0 0 0 0 0 0 0 0 0 0 0 0 0 0.25 0"/>
<feBlend mode="normal" in2="BackgroundImageFix" result="effect1_dropShadow"/>
<feBlend mode="normal" in="SourceGraphic" in2="effect1_dropShadow" result="shape"/>
</filter>
</defs>
</svg>
