<svg width="26" height="24" viewBox="0 0 26 24" fill="none" xmlns="http://www.w3.org/2000/svg">
<path d="M1.72671 16.0956L6.89568 14.291C7.11646 14.2145 7.35608 14.2119 7.57846 14.2836C7.80084 14.3554 7.99394 14.4976 8.12871 14.689L10.1613 17.5673C13.7644 16.1629 16.7677 13.5454 18.6562 10.1636L16.0962 7.74494C15.9256 7.58476 15.8117 7.37322 15.7717 7.14233C15.7318 6.91145 15.7679 6.6738 15.8748 6.46536L18.3765 1.58454C18.4934 1.35997 18.6848 1.18335 18.9177 1.08512C19.1506 0.986898 19.4104 0.973227 19.6523 1.04647L24.2372 2.45138C24.4703 2.52286 24.6724 2.67145 24.8105 2.87291C24.9485 3.07436 25.0144 3.31679 24.9974 3.56062C24.1937 15.0839 14.2278 23.7528 2.75225 22.9482C2.50896 22.9313 2.27858 22.8322 2.09872 22.6671C1.91886 22.502 1.80016 22.2806 1.762 22.0391L1.01246 17.2915C0.974224 17.04 1.02463 16.783 1.15499 16.5647C1.28535 16.3464 1.48752 16.1805 1.72671 16.0956Z" stroke="white" stroke-width="1.5"/>
</svg>
